<svg width="49" height="22" viewBox="0 0 49 22" fill="none" xmlns="http://www.w3.org/2000/svg">
    <g clip-path="url(#clip0_2240_1797)">
        <path d="M18.5373 6.66939C17.974 6.37146 17.2755 6.58799 16.9776 7.15293C16.9613 7.18386 16.9466 7.2148 16.9336 7.24736C16.0284 8.87706 15.0955 10.6989 14.1057 12.6363C13.5505 13.7222 12.9758 14.8456 12.3946 15.9543C11.2907 18.0578 10.1413 19.1876 9.06677 19.23C8.46113 19.2544 7.93038 19.6907 7.8913 20.2947C7.84897 20.9606 8.37484 21.5109 9.0277 21.5109C9.03095 21.5109 9.03421 21.5109 9.03747 21.5109C11.0465 21.493 12.8553 19.9805 14.4134 17.0125C15.0011 15.8924 15.5774 14.7642 16.1342 13.6734C16.9792 12.0192 19.0192 8.22909 19.0192 8.22909C19.3171 7.66577 19.1006 6.96733 18.5356 6.66939H18.5373Z" fill="url(#paint0_linear_2240_1797)"/>
        <path d="M34.1309 13.0355C34.1309 13.0355 31.8125 8.49479 30.8748 6.8309C30.3749 5.94523 29.9109 5.1719 29.4714 4.49136C28.8527 3.53243 28.2829 2.76235 27.7342 2.1388C26.4659 0.699583 25.253 -0.000488281 24.0238 -0.000488281C23.4475 -0.000488281 22.8891 0.155807 22.3404 0.44886C22.3258 0.457 22.316 0.466768 22.303 0.474909C22.2558 0.496074 22.2102 0.518867 22.1662 0.546544C21.6371 0.877043 21.4759 1.57223 21.8064 2.10135C22.1369 2.63048 22.8321 2.79166 23.3612 2.46116C23.3661 2.4579 23.3694 2.45464 23.3742 2.45139C23.4149 2.43999 23.4573 2.42697 23.4963 2.40906C23.7047 2.31463 23.8789 2.27881 24.0238 2.27881C24.5465 2.27881 25.2384 2.75095 26.0247 3.64477C26.4904 4.17226 26.9804 4.83489 27.5193 5.66357C27.9426 6.31643 28.3968 7.07186 28.8918 7.94939C29.8589 9.66375 31.8321 13.6086 32.0844 14.097C32.3775 14.6636 33.0743 14.8833 33.6409 14.5903C34.2074 14.2972 34.4272 13.6004 34.1342 13.0339L34.1309 13.0355Z" fill="url(#paint1_linear_2240_1797)"/>
        <path d="M47.6878 8.01652C47.157 7.68276 46.4521 7.87325 46.1053 8.39586C45.4362 9.40201 44.7914 10.47 44.1891 11.5706C43.9937 11.9271 43.7918 12.3049 43.5834 12.694C42.3005 15.0921 40.3615 18.7162 38.7317 19.019C38.6324 19.0369 38.5087 19.0483 38.3573 19.019C38.354 19.019 38.3492 19.019 38.3459 19.019C38.0089 18.8009 37.5677 18.7634 37.1851 18.962C36.6185 19.2551 36.3987 19.9519 36.6918 20.5185C36.8269 20.7806 37.05 20.9678 37.3056 21.0639C37.3349 21.0802 37.3625 21.0964 37.3951 21.1095C37.8135 21.2625 38.2026 21.3162 38.5478 21.3162C38.7676 21.3162 38.9695 21.2934 39.1485 21.2609C41.8544 20.7578 43.8406 17.0458 45.5924 13.7701C45.7976 13.3875 45.9946 13.0163 46.1883 12.6663C46.7679 11.608 47.3882 10.5807 48.0329 9.61528C48.3878 9.0829 48.2348 8.36004 47.6894 8.01652H47.6878Z" fill="url(#paint2_linear_2240_1797)"/>
        <path d="M38.1374 14.0568C40.0162 10.3497 42.5885 5.27333 44.0212 4.18414C44.5227 3.80318 44.6187 3.08845 44.2378 2.58701C43.8568 2.08556 43.1421 1.9895 42.6406 2.37047C40.9279 3.67293 38.8586 7.5917 36.1251 12.9855C36.1186 12.9985 36.1121 13.0132 36.1039 13.0262C35.7637 13.697 35.438 14.3384 35.1238 14.9522C34.948 15.2957 34.7738 15.6327 34.6061 15.9535C34.3717 16.3996 34.0965 16.8717 33.7921 17.3129C33.4143 17.8616 32.9878 18.363 32.5271 18.7163C32.1135 19.0338 31.6739 19.2308 31.2165 19.2308C31.2083 19.2308 31.2002 19.2308 31.1937 19.2308C31.1871 19.2308 31.1774 19.2308 31.1692 19.2308C30.5555 19.2308 29.9742 18.8759 29.4467 18.3516C29.3116 18.2181 29.1814 18.0716 29.0544 17.9186C28.5643 17.3259 28.1361 16.6128 27.7926 15.9551C27.2098 14.8431 26.6351 13.7198 26.0799 12.6338C25.3 11.11 24.5641 9.67075 23.8331 8.30968C23.0142 6.78743 22.2425 5.43939 21.4903 4.29323C21.0215 3.5785 20.5591 2.94193 20.1 2.39327C18.8154 0.856366 17.5472 0 16.1665 0C12.7134 0 9.86265 5.57615 6.25159 12.6355C5.69642 13.7214 5.12171 14.8448 4.54048 15.9551C3.43177 18.07 2.23188 19.2324 1.16223 19.2324H1.14921C0.52403 19.221 0.00467523 19.7322 -0.000208988 20.3623C-0.00509321 20.9924 0.499609 21.5068 1.12967 21.5117C1.14107 21.5117 1.15247 21.5117 1.16386 21.5117C3.17779 21.5117 4.99146 19.9992 6.5593 17.0134C7.14703 15.8932 7.72337 14.765 8.2818 13.6725C9.89522 10.5157 11.4207 7.53472 12.8567 5.38403C14.571 2.81656 15.6032 2.27767 16.1665 2.27767C16.9057 2.27767 17.8142 3.14706 18.6966 4.29811C19.1801 4.92817 19.6555 5.64453 20.0935 6.34948C20.8391 7.55263 21.4692 8.72484 21.8257 9.38746C22.547 10.7274 23.278 12.1568 24.0513 13.6693C24.6097 14.7617 25.1861 15.89 25.7738 17.0117C26.3322 18.0797 26.9232 18.9556 27.5435 19.6443C27.6786 19.7941 27.8138 19.9374 27.9522 20.0692C28.9534 21.0265 30.028 21.5085 31.1676 21.5085C31.1839 21.5085 31.2002 21.5085 31.2181 21.5085C32.1314 21.5085 33.0041 21.1942 33.8328 20.5772C34.2756 20.2467 34.7054 19.8299 35.1222 19.3236C35.5862 18.7619 36.0307 18.0879 36.4605 17.3113C36.5158 17.212 36.5712 17.1143 36.6249 17.0101C36.8821 16.52 37.1475 16.0023 37.421 15.4667C37.6539 15.0092 37.8932 14.5387 38.139 14.0535L38.1374 14.0568Z" fill="#E97B40"/>
    </g>
    <defs>
        <linearGradient id="paint0_linear_2240_1797" x1="13.5226" y1="20.3846" x2="13.5226" y2="0.6568" gradientUnits="userSpaceOnUse">
            <stop stop-color="#EA7B40"/>
            <stop offset="1" stop-color="#EA5270"/>
        </linearGradient>
        <linearGradient id="paint1_linear_2240_1797" x1="27.9512" y1="21.7001" x2="27.9512" y2="0.314174" gradientUnits="userSpaceOnUse">
            <stop stop-color="#EA7B40"/>
            <stop offset="1" stop-color="#EA5270"/>
        </linearGradient>
        <linearGradient id="paint2_linear_2240_1797" x1="42.5243" y1="20.1661" x2="41.6475" y2="0.876686" gradientUnits="userSpaceOnUse">
            <stop stop-color="#EA7B40"/>
            <stop offset="1" stop-color="#EA5270"/>
        </linearGradient>
        <clipPath id="clip0_2240_1797">
            <rect width="48.2235" height="21.5117" fill="white"/>
        </clipPath>
    </defs>
</svg>
